<?xml version="1.0" encoding="UTF-8"?>
<svg version="1.1" xmlns="http://www.w3.org/2000/svg" width="1408" height="768">
<path d="M0 0 C464.64 0 929.28 0 1408 0 C1408 253.44 1408 506.88 1408 768 C943.36 768 478.72 768 0 768 C0 514.56 0 261.12 0 0 Z " fill="#0B1C3A" transform="translate(0,0)"/>
<path d="M0 0 C2.17198187 0.00315589 4.34258965 -0.02039208 6.5144043 -0.0456543 C20.6523886 -0.1119801 33.72955636 2.33039102 47.12182617 6.94067383 C48.1347876 7.27969727 49.14774902 7.6187207 50.19140625 7.96801758 C57.0476918 10.32726184 63.53164096 13.17424886 70.05932617 16.31567383 C77.47600466 19.83461061 84.05359471 22.26249396 92.37182617 20.31567383 C99.20697933 16.89809725 100.88172224 10.22405951 103.37182617 3.31567383 C106.67182617 3.31567383 109.97182617 3.31567383 113.37182617 3.31567383 C114.43326727 7.56143824 114.75919326 11.64761406 115.03613281 15.99291992 C115.09480026 16.86834442 115.15346771 17.74376892 115.21391296 18.64572144 C115.40702672 21.54328328 115.59470695 24.44116669 115.78198242 27.33911133 C115.91488471 29.3625308 116.04797987 31.3859376 116.18125916 33.40933228 C116.4602054 37.65774202 116.73639494 41.90632017 117.01074219 46.1550293 C117.36042192 51.56611846 117.71747051 56.97669118 118.07672977 62.38715172 C118.35366081 66.57202333 118.62627153 70.75716834 118.89767265 74.94240189 C119.0274494 76.93492295 119.15859926 78.92735512 119.2912159 80.91968918 C120.00899873 91.7374072 120.58252262 102.46870855 120.37182617 113.31567383 C117.07182617 113.31567383 113.77182617 113.31567383 110.37182617 113.31567383 C109.88713867 111.78040039 109.40245117 110.24512695 108.90307617 108.66333008 C97.88473278 74.32199306 82.39833073 46.49388928 49.37182617 29.31567383 C26.93682427 18.03834621 -1.15890998 16.59570905 -24.94067383 24.44067383 C-38.36189869 29.03104607 -49.83621987 36.1942552 -60.62817383 45.31567383 C-61.34231445 45.91508789 -62.05645508 46.51450195 -62.79223633 47.13208008 C-85.18995831 67.732454 -95.90062335 99.34448658 -101.62817383 128.31567383 C-101.79333496 129.12053223 -101.95849609 129.92539062 -102.12866211 130.75463867 C-104.91390078 145.00918487 -104.939414 159.40929929 -105.00317383 173.87817383 C-105.01111969 174.82168701 -105.01906555 175.7652002 -105.0272522 176.73730469 C-105.14396834 194.80457138 -103.68409373 212.78355604 -98.81567383 230.25317383 C-98.55705566 231.20643555 -98.2984375 232.15969727 -98.03198242 233.1418457 C-89.47996332 263.78614915 -71.85103324 291.36986237 -43.73657227 307.39379883 C-31.52993284 314.10836282 -18.49144961 319.33520586 -4.62817383 321.31567383 C-3.8521582 321.4265332 -3.07614258 321.53739258 -2.27661133 321.65161133 C27.64939446 325.07966772 57.99808633 319.53592071 81.95385742 300.53833008 C91.1812543 292.96973264 99.17256872 284.83647571 106.37182617 275.31567383 C106.80092285 274.75187012 107.23001953 274.18806641 107.67211914 273.60717773 C129.50570153 244.65244105 151.75750735 206.39074123 151.63061523 169.17773438 C151.63411987 167.89993103 151.63762451 166.62212769 151.64123535 165.30560303 C151.65028538 161.8281212 151.64684516 158.35075921 151.64047718 154.87327552 C151.63537536 151.21318753 151.64012047 147.55310907 151.64324951 143.89302063 C151.64687844 137.74588196 151.64211979 131.59879149 151.63256836 125.45166016 C151.62170043 118.37619898 151.62520162 111.30085325 151.63622117 104.2253949 C151.6453422 98.12142131 151.6465555 92.01748217 151.64134383 85.91350394 C151.63824857 82.28084 151.63774635 78.64823002 151.64441681 75.01556969 C151.65134883 70.9575777 151.64169949 66.89977968 151.63061523 62.84179688 C151.63668793 61.06999809 151.63668793 61.06999809 151.6428833 59.2624054 C151.57733358 46.21555211 150.78224027 33.48923246 141.74682617 23.37817383 C137.10500561 20.54150571 132.66795364 19.54282531 127.37182617 18.31567383 C127.37182617 14.35567383 127.37182617 10.39567383 127.37182617 6.31567383 C144.49005241 6.2690068 161.60825253 6.23349834 178.72652817 6.21204948 C186.67814067 6.20181753 194.62971248 6.18791577 202.58129883 6.16479492 C209.52683267 6.14460932 216.472337 6.13189904 223.41789937 6.12749684 C227.08194853 6.12493112 230.74591339 6.11907887 234.409935 6.10421371 C276.64784026 5.93977172 323.78356882 5.77306092 357.37182617 35.31567383 C358.1890918 36.02208008 359.00635742 36.72848633 359.84838867 37.45629883 C369.40899335 46.32696296 376.2195073 58.02155324 380.37182617 70.31567383 C380.69022461 71.23735352 381.00862305 72.1590332 381.33666992 73.10864258 C387.17148487 93.46327352 384.01434198 116.75219102 374.37182617 135.31567383 C364.27076337 151.84666048 350.03648622 161.9524488 332.37182617 169.31567383 C335.09694926 171.13242256 337.54368879 172.14978512 340.61303711 173.21679688 C355.12355887 178.287954 366.58794004 185.41895182 377.37182617 196.31567383 C378.03827148 196.96020508 378.7047168 197.60473633 379.39135742 198.26879883 C386.95154643 206.11910796 392.8751846 217.72841184 395.37182617 228.31567383 C395.57420898 229.16645508 395.7765918 230.01723633 395.98510742 230.89379883 C400.4913189 253.33289271 396.52816397 277.78915143 384.50463867 297.30786133 C369.23446936 318.84271548 346.88123502 331.0671419 321.37182617 336.31567383 C314.33144426 337.49398042 307.25190801 338.31804607 300.14990234 339.02197266 C297.9897036 339.25035117 295.8347471 339.52853601 293.68304443 339.82651424 C289.64705432 340.33115847 285.68485223 340.43878691 281.61425781 340.43592834 C280.50757091 340.43720998 280.50757091 340.43720998 279.37852669 340.43851751 C276.92965314 340.44015223 274.48084955 340.43468414 272.03198242 340.42919922 C270.26727805 340.42891689 268.50257356 340.42907598 266.73786926 340.42964172 C261.96369151 340.4299279 257.18953902 340.42406018 252.41536713 340.41706777 C247.41989776 340.41080435 242.42442777 340.41022807 237.42895508 340.40904236 C227.97669426 340.40593785 218.52444505 340.39773633 209.07218933 340.38769287 C198.30800221 340.37650439 187.54381452 340.37101439 176.77962303 340.36599743 C154.64368427 340.35555298 132.50775596 340.33797059 110.37182617 340.31567383 C110.37182617 336.68567383 110.37182617 333.05567383 110.37182617 329.31567383 C111.61577148 329.28989258 112.8597168 329.26411133 114.14135742 329.23754883 C130.57600302 328.96728751 130.57600302 328.96728751 144.37182617 320.87817383 C151.22838955 312.10242883 151.66403023 298.32220524 151.12573242 287.60083008 C150.21657396 259.39761154 158.64614014 233.71611127 177.41601562 211.94458008 C182.71054702 206.34077431 188.94168441 201.65086124 196.37182617 199.31567383 C197.36182617 199.31567383 198.35182617 199.31567383 199.37182617 199.31567383 C199.37182617 237.92567383 199.37182617 276.53567383 199.37182617 316.31567383 C202.34182617 316.31567383 205.31182617 316.31567383 208.37182617 316.31567383 C210.41209137 316.48102926 212.44989601 316.68413381 214.48120117 316.93676758 C215.5665918 317.06760742 216.65198242 317.19844727 217.77026367 317.33325195 C218.8762793 317.47182617 219.98229492 317.61040039 221.12182617 317.75317383 C245.10203361 320.71526801 268.78746207 322.59260619 292.37182617 316.31567383 C293.5087793 316.01532227 294.64573242 315.7149707 295.81713867 315.40551758 C312.11564046 310.49043414 325.5252928 301.07586122 334.64916992 286.61254883 C343.14779904 270.34759877 345.76097118 249.13958449 340.88696289 231.35253906 C335.03725521 213.31036287 322.58209341 199.81143308 305.87182617 191.19067383 C285.38939835 181.07505971 264.41095323 179.97576396 241.93798828 180.05493164 C238.31355093 180.06566132 234.68960797 180.05498198 231.06518555 180.04223633 C206.87797417 180.02686922 186.83623102 181.95156784 167.98901367 198.48364258 C158.35902353 208.9041543 152.74346027 221.09648278 146.62182617 233.75317383 C134.77553328 258.21225988 121.75275055 281.2881176 103.7409668 301.74975586 C102.40635304 303.27618465 101.09929215 304.82300624 99.79370117 306.37426758 C79.23734193 330.0386991 50.06390649 342.47279492 19.37182617 346.31567383 C16.59919405 346.42833388 13.85143855 346.50214021 11.07885742 346.51879883 C10.2990451 346.52581314 9.51923279 346.53282745 8.71578979 346.54005432 C6.20524287 346.55750449 3.69493156 346.56390864 1.18432617 346.56567383 C0.32868073 346.56634857 -0.52696472 346.56702332 -1.40853882 346.56771851 C-14.01526121 346.55189299 -26.31119661 346.27787506 -38.62817383 343.31567383 C-39.34585938 343.14406738 -40.06354492 342.97246094 -40.80297852 342.7956543 C-67.97988776 336.02261166 -90.41003223 322.55837877 -110.62817383 303.31567383 C-111.57950195 302.44362305 -111.57950195 302.44362305 -112.55004883 301.55395508 C-122.90219998 291.76870744 -130.76809789 279.69841032 -137.62817383 267.31567383 C-138.2443457 266.2199707 -138.86051758 265.12426758 -139.49536133 263.99536133 C-144.86829298 253.89424983 -148.26251826 243.21665825 -151.62817383 232.31567383 C-151.95817383 231.27411133 -152.28817383 230.23254883 -152.62817383 229.15942383 C-160.4591989 202.7297142 -160.98883128 172.37334338 -156.62817383 145.31567383 C-156.50458496 144.53595215 -156.38099609 143.75623047 -156.25366211 142.95288086 C-148.85792901 98.0495753 -125.00165602 56.07571463 -87.87817383 29.19067383 C-72.13571156 18.13051807 -54.78169489 9.67534953 -36.25317383 4.44067383 C-35.23924561 4.15401855 -35.23924561 4.15401855 -34.20483398 3.86157227 C-22.91008231 0.87887005 -11.63688107 -0.03517248 0 0 Z " fill="#C8CBCC" transform="translate(584.628173828125,210.684326171875)"/>
<path d="M0 0 C2.74398496 0.01623951 5.48652458 -0.00006216 8.23046875 -0.01904297 C32.77153426 -0.04882465 56.1209172 5.18243379 74.1875 22.73095703 C87.1046606 35.64811763 93.18838267 50.02717358 93.34765625 68.26611328 C93.24430787 81.26593417 91.39172693 93.4603227 83.84765625 104.39111328 C83.30625 105.19935547 82.76484375 106.00759766 82.20703125 106.84033203 C71.15911921 121.99639624 52.63885625 129.80109621 34.61535645 133.02566528 C24.38442885 134.37656016 13.890998 133.82471929 3.59765625 133.70361328 C1.08724702 133.69209318 -1.42317084 133.68231658 -3.93359375 133.67431641 C-6.36589448 133.66089481 -8.79818749 133.64597253 -11.23046875 133.62939453 C-12.33497375 133.6220076 -13.43947876 133.61462067 -14.57745361 133.60700989 C-33.18554556 133.38281283 -33.18554556 133.38281283 -41.15234375 131.39111328 C-41.15234375 89.15111328 -41.15234375 46.91111328 -41.15234375 3.39111328 C-27.0092438 1.46250874 -14.10789099 -0.09895823 0 0 Z " fill="#0B1C3A" transform="translate(825.15234375,236.60888671875)"/>
<path d="M0 0 C0.66 0 1.32 0 2 0 C2.51046875 1.17755859 2.51046875 1.17755859 3.03125 2.37890625 C8.05320028 13.26425062 13.78827324 18.82155554 25 23 C25 23.66 25 24.32 25 25 C24.21496094 25.3403125 23.42992187 25.680625 22.62109375 26.03125 C11.73574938 31.05320028 6.17844446 36.78827324 2 48 C1.34 48 0.68 48 0 48 C-0.3403125 47.21496094 -0.680625 46.42992187 -1.03125 45.62109375 C-6.05320028 34.73574938 -11.78827324 29.17844446 -23 25 C-23 24.34 -23 23.68 -23 23 C-22.21496094 22.6596875 -21.42992187 22.319375 -20.62109375 21.96875 C-9.73574938 16.94679972 -4.17844446 11.21172676 0 0 Z " fill="#828B9A" transform="translate(1351,688)"/>
<path d="M0 0 C17.46364658 -0.02317262 34.927287 -0.04100675 52.39094543 -0.05181217 C60.50005619 -0.0569632 68.60915721 -0.06398314 76.71826172 -0.07543945 C83.78812225 -0.08542277 90.85797571 -0.09186211 97.92784309 -0.09408849 C101.66947427 -0.09538941 105.41108527 -0.09843598 109.15270996 -0.10573006 C113.33488858 -0.11381645 117.51703234 -0.11398879 121.69921875 -0.11352539 C123.54959999 -0.1189183 123.54959999 -0.1189183 125.43736267 -0.12442017 C131.3895746 -0.11728595 137.11574128 0.08467905 143 1 C143 1.33 143 1.66 143 2 C128.47922102 2.17150011 113.95838813 2.33800058 99.4375 2.5 C98.37314854 2.51187725 97.30879707 2.5237545 96.21219254 2.53599167 C65.14061645 2.88126456 34.07383554 3.17371629 3 3 C2.67 5.64 2.34 8.28 2 11 C3.32 11.33 4.64 11.66 6 12 C4.02 12 2.04 12 0 12 C0 8.04 0 4.08 0 0 Z " fill="#BBC1CA" transform="translate(712,217)"/>
<path d="M0 0 C0 3 0 3 -2.01953125 5.36010742 C-3.40205078 6.71906128 -3.40205078 6.71906128 -4.8125 8.10546875 C-5.30081299 8.5895369 -5.78912598 9.07360504 -6.29223633 9.57234192 C-7.85459826 11.1179014 -9.42706327 12.65271107 -11 14.1875 C-12.06057762 15.23303282 -13.12048229 16.27924873 -14.1796875 17.32617188 C-16.77869434 19.89208902 -19.3868639 22.44846467 -22 25 C-22.66 24.67 -23.32 24.34 -24 24 C-16.39173545 15.51489645 -8.5364267 7.55261866 0 0 Z " fill="#AEB4BC" transform="translate(490,245)"/>
<path d="M0 0 C2.44474191 4.2112913 1.67151407 7.24244058 0.625 11.8125 C-0.52751296 17.01345889 -1.01346786 21.63979275 -1 27 C-2.5 28.9375 -2.5 28.9375 -4 30 C-4.25645895 23.26795268 -3.28162548 17.0986393 -2 10.5 C-1.80921875 9.48679687 -1.6184375 8.47359375 -1.421875 7.4296875 C-0.95435389 4.95182561 -0.48026672 2.47541732 0 0 Z " fill="#979EA8" transform="translate(431,340)"/>
<path d="M0 0 C0.59167969 0.20496094 1.18335938 0.40992188 1.79296875 0.62109375 C0.93445313 0.98847656 0.0759375 1.35585938 -0.80859375 1.734375 C-4.77863788 3.93843398 -7.47344997 6.55034004 -10.58203125 9.80859375 C-11.12730469 10.36740234 -11.67257812 10.92621094 -12.234375 11.50195312 C-13.56559894 12.86820927 -14.88731435 14.24371932 -16.20703125 15.62109375 C-16.20703125 10.68625009 -12.56546273 7.98605914 -9.20703125 4.62109375 C-3.34288117 -0.57391057 -3.34288117 -0.57391057 0 0 Z " fill="#D9DEE4" transform="translate(775.20703125,414.37890625)"/>
<path d="M0 0 C-1.53643852 3.68069887 -3.78150945 5.98775204 -6.625 8.75 C-7.85089844 9.94882812 -7.85089844 9.94882812 -9.1015625 11.171875 C-9.72804688 11.77515625 -10.35453125 12.3784375 -11 13 C-11.66 12.34 -12.32 11.68 -13 11 C-11.21427748 9.16052663 -9.42197551 7.32842259 -7.625 5.5 C-7.11710938 4.97535156 -6.60921875 4.45070313 -6.0859375 3.91015625 C-2.2265625 0 -2.2265625 0 0 0 Z " fill="#1D2A40" transform="translate(528,253)"/>
<path d="M0 0 C0.66 0 1.32 0 2 0 C2 2.64 2 5.28 2 8 C-0.62315032 9.31157516 -2.23033436 8.89649988 -5.125 8.5625 C-6.49011719 8.40974609 -6.49011719 8.40974609 -7.8828125 8.25390625 C-8.58148437 8.17011719 -9.28015625 8.08632813 -10 8 C-10 7.67 -10 7.34 -10 7 C-6.7 7 -3.4 7 0 7 C0 4.69 0 2.38 0 0 Z " fill="#2F3D52" transform="translate(705,317)"/>
<path d="M0 0 C0.66 0 1.32 0 2 0 C0.4169423 4.2742558 -2.50568404 6.26531794 -6 9 C-4.4722133 5.56247993 -2.49818944 2.81046312 0 0 Z " fill="#E0E6EB" transform="translate(689,508)"/>
</svg>
